<?xml version="1.0" encoding="utf-8"?>
<!-- Generator: Adobe Illustrator 25.4.1, SVG Export Plug-In . SVG Version: 6.00 Build 0)  -->
<svg version="1.1" id="Layer_1" xmlns="http://www.w3.org/2000/svg" xmlns:xlink="http://www.w3.org/1999/xlink" x="0px" y="0px"
	 viewBox="0 0 1362.7 695.8" style="enable-background:new 0 0 1362.7 695.8;" xml:space="preserve">
<style type="text/css">
	.st0{fill:#67BBC6;}
	.st1{fill:#8FE1EB;}
	.st2{fill:#BBB58E;}
	.st3{fill:#DBD4BE;}
	.st4{fill:#E4E0CE;}
	.st5{fill:#A89539;}
	.st6{fill:#544B1D;}
	.st7{fill:#6C885D;}
	.st8{fill:none;}
	.st9{fill:none;stroke:#FFFFFF;stroke-width:3;stroke-miterlimit:10;}
	.st10{fill:#FFFFFF;}
	.st11{font-family:'Arial-Black';}
	.st12{font-size:13.7342px;}
</style>
<g id="Layer_1_00000003066201196303248700000011652619703357556640_">
	<path class="st0" d="M1356,609.6c-4.1-5.5-12.5-11.6-16-24.5c-0.2-0.8-0.4-1.5-0.5-2c-0.7-1.8-1.3-3.6-1.7-5.5
		c-1.9-5.2-4.9-10.4-9.8-11.1c-1.5-0.2-2.6-0.9-3.4-1.9c-1.6-0.1-3.3-0.3-4.9-0.4c-3.9-0.4-8-0.9-12.1-1.4
		c-45.1-5.3-97.2-9.9-154.6-13.7c-4.9-0.4-9.8-0.7-14.7-1c-25.7-1.9-51.3-3-77-4.2c-2.7-0.2-5.3-0.3-8-0.4
		c-88.1-4-185.1-6.2-287-6.2c-84.2,0-168.7,4.3-252.9,2.4c-5-0.1-9.9-0.3-14.9-0.4c-25.5,3-50.6,1.6-75.3-1.3
		c-4.1-0.5-8.2-1.1-12.4-1.5c-4,0.4-7.9,0.8-11.8,1.1s-7.8,0.5-11.7,0.6c-12.5,0.5-24.9,3.7-37.3,6.2c-4.2,0.8-8.3,1.6-12.5,2.1
		c-47.1,3.7-93.2-15.3-137.6,2.5c-4.2,1-8.4,2.1-12.6,3.2c-8.4,2.2-16.8,4.4-25.2,6.7c-3.8,1.3-7.5,2.8-11.2,4.3
		c-11,4.5-22,9.1-33.2,13.3c-18.2,6.8-38,9.7-56,16.3c-9.3,3.4-17,8-20.2,15.7c-15.1,34,132.8,47.1,152.3,44.3
		c25.7-3.5,51.8-8.7,77.3-1.3c41.7,12.2,80.9,24.8,124.9,29.9c14.2,1.6,28.5,2.9,42.8,3.6c3.6,0.2,7.1,0.4,10.7,0.4
		c21.8,1.9,34.6-16.7,55.1-18.9c24.4-3.3,56.3,7.5,81,7.5c2.8,0,5.4,0.1,8.1,0.3c31.5,4.7,59.8,18.7,93.3,19.3
		c4.8,0.3,9.7,0.6,14.7,0.7c34.2,3,69,0.3,103-1.7c4.3-0.2,8.5-0.5,12.8-0.7c33.4,1.1,65.5-3.9,95.7-14c4.1-1,8.2-1.9,12.4-2.7
		c8.3-1.5,16.8-2.4,25.4-2.3c17.3,0.2,33.3,6.2,50.7,5.2c16.5-0.9,33.4-6.5,47.9-11.3c6.5-2.1,13.1-4.3,20.1-4.3
		c17.5,0.1,30,13.7,46.7,17c21.4,4.3,46.9-0.9,68.5-2.5c35.8-2.7,73.2-1.3,108.7-7.4c-0.7-1.4-0.7-3,0-4.4c0,0,0.6-1.2,1.9-2
		c4.8-3.1,52.5-4.1,63.5-18.7C1365.3,636.2,1363,618.9,1356,609.6z"/>
	<path class="st1" d="M1329.4,638.9c2.9-4.7,4.9-10,5.5-16.2c1-10.1,0.4-20.7-1.9-30.5c-0.1-0.6-0.3-1.3-0.5-2
		c-0.7-1.8-1.3-3.6-1.7-5.5c-0.8-2.2-1.8-4.3-3-6.2c-12.6-1.4-25.4-2.6-38.4-3.9c-53.3-5.3-106.7-9-160.3-11.6
		c-4.6-0.3-9.3-0.5-14-0.7c-24.5-1.3-49-2.1-73.5-2.9c-2.5,0-5-0.1-7.6-0.2c-84.1-2.8-176.7-4.3-274-4.3c-66.5,0-130.8,0.7-191.7,2
		c-4.4,0.1-8.7,0.2-13,0.3c-42.2,1-80.8-0.6-123,3.7c-43,4.4-86.3,8.1-129.7,7.9c-36.4-0.2-73.1-7.6-109.4-4.4
		c-37.1,3.3-66.7,22.2-101.1,31.9c-3.6,1-7.1,2.2-10.5,3.5c-3.4,1.4-6.7,2.9-9.9,4.6c-12.8,7,3.8,16,14.1,19
		c55.7,16.3,116,11.3,174.2,13.3c27.9,1,55,3.8,81.6,10.6c28.8,7.3,57.3,16,88.2,14.7c52.5-2.2,107.6-20.7,160-8.6
		c54.8,12.6,111.8,21.2,169.1,21c65.7-0.3,127.1-23.2,192.5-24.3c26.3-0.4,50.3,9.8,75.5,9.4c9.1-0.2,16.7-5.2,24.9-8.2
		c28.4-10.5,53.5,5.1,81.5,3.3c3.5-0.2,6.9-0.6,10.5-0.9c35.1-1,70,1.9,103.3-2.8c4.1-0.6,8.3-1.4,12.4-2.2
		c19.3-3.9,40.3-2.2,59.8-7.1C1322.6,640.8,1326.1,639.8,1329.4,638.9z"/>
	<ellipse class="st0" cx="10.8" cy="645.2" rx="10.8" ry="8.4"/>
	<ellipse class="st0" cx="26.5" cy="668.9" rx="14.2" ry="11"/>
	<ellipse class="st0" cx="32.6" cy="649" rx="5.4" ry="4.2"/>
</g>
<path class="st2" d="M432.2,593.5c0-29.8-61-71.6-136.2-71.6s-136.2,40.7-136.2,70.5s65.6,35.1,140.9,35.1S432.2,623.3,432.2,593.5z
	"/>
<path class="st3" d="M416,579.5c0-22.5-53.7-54.1-120-54.1s-120,30.7-120,53.2s57.8,26.5,124.1,26.5S416,602.1,416,579.5z"/>
<path class="st4" d="M398.9,573.6c0-19-46.1-45.6-102.9-45.6s-102.9,25.9-102.9,44.9s49.6,22.4,106.4,22.4S398.9,592.6,398.9,573.6z
	"/>
<path class="st2" d="M1211.3,550.6c-61.5,0-111.4,34.4-111.4,59.6c0,25.2,53.7,29.7,115.2,29.7s107.6-3.5,107.6-28.7
	S1272.8,550.6,1211.3,550.6z"/>
<path class="st3" d="M1313.1,602.2c0-19.1-44-45.8-98.2-45.8s-98.2,26-98.2,45.1S1164,624,1218.2,624
	C1272.5,623.9,1313.1,621.2,1313.1,602.2z"/>
<path class="st4" d="M1303.5,598.4c0-16.1-37.7-38.7-84.2-38.7s-84.2,21.9-84.2,38s40.6,19,87,19S1303.5,614.5,1303.5,598.4z"/>
<g>
	<path class="st5" d="M256.4,574.7c30.3-0.1,60.7-0.2,91.1-0.3c22.6-114.3,8.6-238.3-41.9-352.5c-3.2,0-6.4,0-9.6,0
		C319.4,336.2,306.2,460.4,256.4,574.7z"/>
</g>
<path class="st6" d="M306,294.9c11.7-13.5,27.7,0,27.7,0"/>
<path class="st6" d="M306,336.7c15-15.8,35.4,0,35.4,0"/>
<path class="st6" d="M306,378.8c19.6-16.4,46.3,0,46.3,0"/>
<path class="st6" d="M300.5,423.5c22.6-16.7,53.4,0,53.4,0"/>
<path class="st6" d="M290.7,475.3c28.9-18,68.2,0,68.2,0"/>
<path class="st6" d="M275.2,524.4c35.1-17,82.8,0,82.8,0"/>
<path class="st5" d="M296,221.9"/>
<path class="st7" d="M299.7,217.8l-24.8,70l-25.2-35c0,0,23,36.5,0,72.8l-18.6-34.8c0,0,24.1,36.4-4.4,76.6l-12.1-38.3
	c0,0,16.2,53.8-7.8,90.2s-24,36.4-24,36.4l0,0c0,0-40.6-87.9-9.3-145.4S299.7,217.8,299.7,217.8z"/>
<path class="st7" d="M300.3,221.9L236,221l20.5-34.1c0,0-22.4,32.5-58.9,22.7l22.4-28c0,0-21.9,33.5-63.3,19.8l27.2-23
	c0,0-38.5,31.6-75.4,20.9c-36.9-10.7-36.9-10.7-36.9-10.7l0,0c0,0,58.5-64.7,114.7-53.9C242.5,145.6,300.3,221.9,300.3,221.9z"/>
<path class="st7" d="M296,221.9l63.9-30.7l-34.2-24.8c0,0,35.5,22.3,68-4.4L360,144.2c0,0,35.4,23.5,71.3-9.3l-36.5-10.5
	c0,0,51.2,14,83.7-13.8S511,82.7,511,82.7l0,0c0,0-84.5-37.9-136.3-1.1S296,221.9,296,221.9z"/>
<path class="st7" d="M296.8,218l47.3,40.1l1.5-37.2c0,0,0.7,37.3,32,53.5l-2.8-34.1c0,0-0.1,37.8,36.6,54.3l-8.8-33.7
	c0,0,12.8,46.9,44.9,62.7c32,15.8,32,15.8,32,15.8l0,0c0,0-11.5-83.1-57.7-111S296.8,218,296.8,218z"/>
<path class="st7" d="M299.9,221.9l-46.3-56.2l40.7-7.4c0,0-40.9,4.7-60.2-34.1l37.5-1.3c0,0-41.4,5.7-61.3-40l37.3,6.6
	c0,0-52.1-9.9-70.9-49.6S158,0,158,0l0,0c0,0,91.6,2.9,124.5,59.3S299.9,221.9,299.9,221.9z"/>
<g>
	<path class="st5" d="M1197.1,580.7c19.3,0,38.6-0.1,57.9-0.1c-22.2-39.3-31.1-96.6-26.6-135.9c-2,0-4.1,0-6.1,0
		C1200.5,484,1192.1,541.4,1197.1,580.7z"/>
</g>
<path class="st6" d="M1202.9,493.5c11.7-13.5,27.7,0,27.7,0"/>
<path class="st6" d="M1199.1,532.2c15-15.8,35.4,0,35.4,0"/>
<path class="st6" d="M1196,565.3c22.6-16.7,53.4,0,53.4,0"/>
<path class="st5" d="M1220.9,444.7"/>
<path class="st7" d="M1222.2,443.4l-8.5,22.5l-8.6-11.3c0,0,7.9,11.7,0,23.4l-6.4-11.2c0,0,8.2,11.7-1.5,24.7l-4.1-12.3
	c0,0,5.5,17.3-2.7,29s-8.2,11.7-8.2,11.7l0,0c0,0-13.9-28.3-3.2-46.8C1189.8,454.7,1222.2,443.4,1222.2,443.4z"/>
<path class="st7" d="M1222.4,444.7l-22-0.3l7-11c0,0-7.6,10.5-20.1,7.3l7.6-9c0,0-7.5,10.8-21.6,6.4l9.3-7.4c0,0-13.2,10.2-25.8,6.7
	c-12.6-3.4-12.6-3.4-12.6-3.4l0,0c0,0,20-20.8,39.2-17.3C1202.6,420.1,1222.4,444.7,1222.4,444.7z"/>
<path class="st7" d="M1220.9,444.7l21.8-9.9l-11.7-8c0,0,12.1,7.2,23.2-1.4l-11.5-5.7c0,0,12.1,7.6,24.4-3l-12.5-3.4
	c0,0,17.5,4.5,28.6-4.4s11.1-9,11.1-9l0,0c0,0-28.9-12.2-46.6-0.4C1230.2,411.4,1220.9,444.7,1220.9,444.7z"/>
<path class="st7" d="M1221.2,443.4l17.1,11.4l2.1-12.5c0,0-1.2,12.5,10.5,16.5l0.2-11.3c0,0-1.5,12.6,12.3,16.6l-2.1-10.9
	c0,0,3.2,15.2,15.2,19.1s12,3.9,12,3.9l0,0c0,0-1.3-27.3-18.4-34.7C1253,434.2,1221.2,443.4,1221.2,443.4z"/>
<path class="st7" d="M1222.7,444.8l4.8,20.9l9.6-7.5c0,0-9,8-3.2,19.7l7.5-7.9c0,0-9.3,7.9-2,21.1l5.6-9.4c0,0-7.6,13.3-1.5,25
	c6.1,11.8,6.1,11.8,6.1,11.8l0,0c0,0,16.9-20.6,9.4-38.6C1251.6,461.9,1222.7,444.8,1222.7,444.8z"/>
<path class="st7" d="M1222.3,444.7l-15.8-18.1l13.9-2.4c0,0-14,1.5-20.6-11l12.8-0.4c0,0-14.1,1.8-20.9-12.9l12.8,2.1
	c0,0-17.8-3.2-24.2-16c-6.4-12.8-6.4-12.8-6.4-12.8l0,0c0,0,31.3,0.9,42.6,19.1C1227.5,410.5,1222.3,444.7,1222.3,444.7z"/>
<g>
	<line class="st8" x1="275.2" y1="524.4" x2="275.2" y2="249"/>
	<g>
		<line class="st9" x1="275.2" y1="521" x2="275.2" y2="252.4"/>
		<g>
			<polygon class="st10" points="280.3,515 275.2,520.1 270.1,515 270.1,519.3 275.2,524.4 280.3,519.3 			"/>
		</g>
		<g>
			<polygon class="st10" points="280.3,258.4 275.2,253.3 270.1,258.4 270.1,254.1 275.2,249 280.3,254.1 			"/>
		</g>
	</g>
</g>
<g>
	<line class="st8" x1="150" y1="524.4" x2="275.2" y2="524.4"/>
	<g>
		<line class="st9" x1="153.4" y1="524.4" x2="271.8" y2="524.4"/>
		<g>
			<polygon class="st10" points="159.4,529.5 154.3,524.4 159.4,519.3 155.1,519.3 150,524.4 155.1,529.5 			"/>
		</g>
		<g>
			<polygon class="st10" points="265.8,529.5 270.9,524.4 265.8,519.3 270.1,519.3 275.2,524.4 270.1,529.5 			"/>
		</g>
	</g>
</g>
<g>
	<g>
		<line class="st9" x1="151.4" y1="515.4" x2="263.6" y2="260.1"/>
		<g>
			<polygon class="st10" points="158.4,511.9 151.7,514.5 149.1,507.8 147.4,511.8 150,518.5 156.7,515.9 			"/>
		</g>
		<g>
			<polygon class="st10" points="265.9,267.7 263.3,261 256.6,263.6 258.3,259.6 265,257 267.6,263.7 			"/>
		</g>
	</g>
</g>
<text transform="matrix(0.6327 -1.3949 0.9107 0.413 195.053 399.0228)" class="st10 st11 st12">SLOPE</text>
<text transform="matrix(9.378837e-17 -1.5317 1 6.123234e-17 269.4336 430.502)" class="st10 st11 st12">RISE</text>
<text transform="matrix(1.5317 0 0 1 185.9502 518.5)" class="st10 st11 st12">RUN</text>
<text transform="matrix(1.5317 0 0 1 207.5 664.8604)" class="st10 st11 st12">Fig.1</text>
</svg>
