<?xml version="1.0" encoding="utf-8"?>
<!-- Generator: Adobe Illustrator 25.4.1, SVG Export Plug-In . SVG Version: 6.00 Build 0)  -->
<svg version="1.1" id="Layer_1" xmlns="http://www.w3.org/2000/svg" xmlns:xlink="http://www.w3.org/1999/xlink" x="0px" y="0px"
	 viewBox="0 0 1537 750" style="enable-background:new 0 0 1537 750;" xml:space="preserve">
<style type="text/css">
	.st0{fill:#67BBC6;}
	.st1{fill:#8FE1EB;}
	.st2{fill:#BBB58E;}
	.st3{fill:#DBD4BE;}
	.st4{fill:#E4E0CE;}
	.st5{fill:#A89539;}
	.st6{fill:#544B1D;}
	.st7{fill:#6C885D;}
</style>
<g id="Layer_1_00000003066201196303248700000011652619703357556640_">
	<path class="st0" d="M1528.2,641.9c2.7,5.9,1.4,12-6.4,17.8c-7.3,5.5-17.6,6.7-27.3,6.6c-25.9-0.4-51.3-9.4-77-7.2
		c-31,2.6-51.2,22.5-79.5,29.9c-41.1,10.8-85.7,8.3-128.1,11.5c-21.6,1.6-47.1,6.8-68.5,2.5c-16.7-3.3-29.2-16.9-46.7-17
		c-7,0-13.6,2.2-20.1,4.3c-14.5,4.8-31.4,10.4-47.9,11.3c-17.4,1-33.4-5-50.7-5.2c-8.6-0.1-17.1,0.8-25.4,2.3
		c-4.2,0.8-8.3,1.7-12.4,2.7c-30.2,10.1-62.3,15.1-95.7,14c-4.3,0.2-8.5,0.5-12.8,0.7c-34,2-68.8,4.7-103,1.7
		c-5-0.1-9.9-0.4-14.7-0.7c-33.5-0.6-61.8-14.6-93.3-19.3c-2.7-0.2-5.3-0.3-8.1-0.3c-24.7,0-56.6-10.8-81-7.5
		c-20.5,2.2-33.3,20.8-55.1,18.9c-3.6,0-7.1-0.2-10.7-0.4c-14.3-0.7-28.6-2-42.8-3.6c-44-5.1-83.2-17.7-124.9-29.9
		c-25.5-7.4-51.6-2.2-77.3,1.3C199.3,679.1,51.4,666,66.5,632c3.2-7.7,10.9-12.3,20.2-15.7c18-6.6,37.8-9.5,56-16.3
		c11.2-4.2,22.2-8.8,33.2-13.3c3.7-1.5,7.4-3,11.2-4.3c8.4-2.3,16.8-4.5,25.2-6.7c4.2-1.1,8.4-2.2,12.6-3.2
		c44.4-17.8,90.5,1.2,137.6-2.5c4.2-0.5,8.3-1.3,12.5-2.1c12.4-2.5,24.8-5.7,37.3-6.2c3.9-0.1,7.8-0.3,11.7-0.6
		c3.9-0.3,7.8-0.7,11.8-1.1c4.2,0.4,8.3,1,12.4,1.5c24.7,2.9,49.8,4.3,75.3,1.3c5,0.1,9.9,0.3,14.9,0.4
		c84.2,1.9,168.7-2.4,252.9-2.4c101.9,0,198.9,2.2,287,6.2c2.7,0.1,5.3,0.2,8,0.4c25.7,1.2,51.3,2.3,77,4.2c4.9,0.3,9.8,0.6,14.7,1
		c57.4,3.8,109.5,8.4,154.6,13.7c4.1,0.5,8.2,1,12.1,1.4c50.7,4.3,100.7,13.3,146.7,28.4c3.7,1.5,7.6,3.2,11.4,5.1
		C1514,626.7,1524.6,634.1,1528.2,641.9z"/>
	<path class="st1" d="M1493.9,631.2c2,2.2,1.7,4.6,0.4,6.6c-1.3,2-3.5,3.8-5.4,4.8c-4,1.1-7.9,1.8-11.9,2.4c-4,0.5-7.9,0.8-11.8,1
		c-30.2-1.3-62.2-7.3-92.2,6.1c-3.6,1-7.2,2-10.8,3c-3.6,1-7.3,2-10.9,2.9c-19.5,4.9-40.5,3.2-59.8,7.1c-4.1,0.8-8.3,1.6-12.4,2.2
		c-33.3,4.7-68.2,1.8-103.3,2.8c-3.6,0.3-7,0.7-10.5,0.9c-28,1.8-53.1-13.8-81.5-3.3c-8.2,3-15.8,8-24.9,8.2
		c-25.2,0.4-49.2-9.8-75.5-9.4c-65.4,1.1-126.8,24-192.5,24.3c-57.3,0.2-114.3-8.4-169.1-21c-52.4-12.1-107.5,6.4-160,8.6
		c-30.9,1.3-59.4-7.4-88.2-14.7c-26.6-6.8-53.7-9.6-81.6-10.6c-58.2-2-118.5,3-174.2-13.3c-10.3-3-26.9-12-14.1-19
		c3.2-1.7,6.5-3.2,9.9-4.6c3.4-1.3,6.9-2.5,10.5-3.5c34.4-9.7,64-28.6,101.1-31.9c36.3-3.2,73,4.2,109.4,4.4
		c43.4,0.2,86.7-3.5,129.7-7.9c42.2-4.3,80.8-2.7,123-3.7c4.3-0.1,8.6-0.2,13-0.3c60.9-1.3,125.2-2,191.7-2
		c97.3,0,189.9,1.5,274,4.3c2.6,0.1,5.1,0.2,7.6,0.2c24.5,0.8,49,1.6,73.5,2.9c4.7,0.2,9.4,0.4,14,0.7c53.6,2.6,107,6.3,160.3,11.6
		c54.4,5.4,105.8,9.5,154.8,29.2c4,1.7,7.8,3.6,11.5,5.8C1490.5,627.7,1492.6,629.5,1493.9,631.2z"/>
	<ellipse class="st0" cx="42.8" cy="661.6" rx="10.8" ry="8.4"/>
	<ellipse class="st0" cx="1484.5" cy="682.1" rx="10.8" ry="8.4"/>
	<ellipse class="st0" cx="58.5" cy="685.3" rx="14.2" ry="11"/>
	<ellipse class="st0" cx="64.6" cy="665.4" rx="5.4" ry="4.2"/>
	<ellipse class="st0" cx="1529.4" cy="690.6" rx="5.4" ry="4.2"/>
</g>
<path class="st2" d="M464.2,609.9c0-29.8-61-71.6-136.2-71.6S191.8,579,191.8,608.8c0,29.8,65.6,35.1,140.9,35.1
	S464.2,639.7,464.2,609.9z"/>
<path class="st3" d="M448,595.9c0-22.5-53.7-54.1-120-54.1s-120,30.7-120,53.2s57.8,26.5,124.1,26.5S448,618.5,448,595.9z"/>
<path class="st4" d="M430.9,590c0-19-46.1-45.6-102.9-45.6s-102.9,25.9-102.9,44.9s49.6,22.4,106.4,22.4S430.9,609,430.9,590z"/>
<path class="st2" d="M1354.7,627.6c0-25.2-49.9-60.6-111.4-60.6s-111.4,34.4-111.4,59.6c0,25.2,53.7,29.7,115.2,29.7
	S1354.7,652.8,1354.7,627.6z"/>
<path class="st3" d="M1345.1,618.6c0-19.1-44-45.8-98.2-45.8c-54.2,0-98.2,26-98.2,45.1c0,19.1,47.3,22.5,101.5,22.5
	C1304.5,640.3,1345.1,637.6,1345.1,618.6z"/>
<path class="st4" d="M1335.5,614.8c0-16.1-37.7-38.7-84.2-38.7c-46.5,0-84.2,21.9-84.2,38c0,16.1,40.6,19,87,19
	S1335.5,630.9,1335.5,614.8z"/>
<g>
	<path class="st5" d="M288.4,591.1c30.3-0.1,60.7-0.2,91.1-0.3c22.6-114.3,8.6-238.3-41.9-352.5c-3.2,0-6.4,0-9.6,0
		C351.4,352.6,338.2,476.8,288.4,591.1z"/>
</g>
<path class="st6" d="M338,311.3c11.7-13.5,27.7,0,27.7,0"/>
<path class="st6" d="M338,353.1c15-15.8,35.4,0,35.4,0"/>
<path class="st6" d="M338,395.2c19.6-16.4,46.3,0,46.3,0"/>
<path class="st6" d="M332.5,439.9c22.6-16.7,53.4,0,53.4,0"/>
<path class="st6" d="M322.7,491.7c28.9-18,68.2,0,68.2,0"/>
<path class="st6" d="M307.2,540.8c35.1-17,82.8,0,82.8,0"/>
<path class="st5" d="M328,238.3"/>
<path class="st7" d="M331.7,234.2l-24.8,70l-25.2-35c0,0,23,36.5,0,72.8l-18.6-34.8c0,0,24.1,36.4-4.4,76.6l-12.1-38.3
	c0,0,16.2,53.8-7.8,90.2s-24,36.4-24,36.4l0,0c0,0-40.6-87.9-9.3-145.4S331.7,234.2,331.7,234.2z"/>
<path class="st7" d="M332.3,238.3l-64.3-0.9l20.5-34.1c0,0-22.4,32.5-58.9,22.7l22.4-28c0,0-21.9,33.5-63.3,19.8l27.2-23
	c0,0-38.5,31.6-75.4,20.9c-36.9-10.7-36.9-10.7-36.9-10.7l0,0c0,0,58.5-64.7,114.7-53.9C274.5,162,332.3,238.3,332.3,238.3z"/>
<path class="st7" d="M328,238.3l63.9-30.7l-34.2-24.8c0,0,35.5,22.3,68-4.4L392,160.6c0,0,35.4,23.5,71.3-9.3l-36.5-10.5
	c0,0,51.2,14,83.7-13.8S543,99.1,543,99.1l0,0c0,0-84.5-37.9-136.3-1.1S328,238.3,328,238.3z"/>
<path class="st7" d="M328.8,234.4l47.3,40.1l1.5-37.2c0,0,0.7,37.3,32,53.5l-2.8-34.1c0,0-0.1,37.8,36.6,54.3l-8.8-33.7
	c0,0,12.8,46.9,44.9,62.7c32,15.8,32,15.8,32,15.8l0,0c0,0-11.5-83.1-57.7-111S328.8,234.4,328.8,234.4z"/>
<path class="st7" d="M331.9,238.3l-46.3-56.2l40.7-7.4c0,0-40.9,4.7-60.2-34.1l37.5-1.3c0,0-41.4,5.7-61.3-40l37.3,6.6
	c0,0-52.1-9.9-70.9-49.6S190,16.4,190,16.4l0,0c0,0,91.6,2.9,124.5,59.3S331.9,238.3,331.9,238.3z"/>
<g>
	<path class="st5" d="M1229.1,597.1c19.3,0,38.6-0.1,57.9-0.1c-22.2-39.3-31.1-96.6-26.6-135.9c-2,0-4.1,0-6.1,0
		C1232.5,500.4,1224.1,557.8,1229.1,597.1z"/>
</g>
<path class="st6" d="M1234.9,509.9c11.7-13.5,27.7,0,27.7,0"/>
<path class="st6" d="M1231.1,548.6c15-15.8,35.4,0,35.4,0"/>
<path class="st6" d="M1228,581.7c22.6-16.7,53.4,0,53.4,0"/>
<path class="st5" d="M1252.9,461.1"/>
<path class="st7" d="M1254.2,459.8l-8.5,22.5l-8.6-11.3c0,0,7.9,11.7,0,23.4l-6.4-11.2c0,0,8.2,11.7-1.5,24.7l-4.1-12.3
	c0,0,5.5,17.3-2.7,29c-8.2,11.7-8.2,11.7-8.2,11.7l0,0c0,0-13.9-28.3-3.2-46.8C1221.8,471.1,1254.2,459.8,1254.2,459.8z"/>
<path class="st7" d="M1254.4,461.1l-22-0.3l7-11c0,0-7.6,10.5-20.1,7.3l7.6-9c0,0-7.5,10.8-21.6,6.4l9.3-7.4c0,0-13.2,10.2-25.8,6.7
	c-12.6-3.4-12.6-3.4-12.6-3.4l0,0c0,0,20-20.8,39.2-17.3C1234.6,436.5,1254.4,461.1,1254.4,461.1z"/>
<path class="st7" d="M1252.9,461.1l21.8-9.9l-11.7-8c0,0,12.1,7.2,23.2-1.4l-11.5-5.7c0,0,12.1,7.6,24.4-3l-12.5-3.4
	c0,0,17.5,4.5,28.6-4.4s11.1-9,11.1-9l0,0c0,0-28.9-12.2-46.6-0.4C1262.2,427.8,1252.9,461.1,1252.9,461.1z"/>
<path class="st7" d="M1253.2,459.8l17.1,11.4l2.1-12.5c0,0-1.2,12.5,10.5,16.5l0.2-11.3c0,0-1.5,12.6,12.3,16.6l-2.1-10.9
	c0,0,3.2,15.2,15.2,19.1c12,3.9,12,3.9,12,3.9l0,0c0,0-1.3-27.3-18.4-34.7C1285,450.6,1253.2,459.8,1253.2,459.8z"/>
<path class="st7" d="M1254.7,461.2l4.8,20.9l9.6-7.5c0,0-9,8-3.2,19.7l7.5-7.9c0,0-9.3,7.9-2,21.1l5.6-9.4c0,0-7.6,13.3-1.5,25
	c6.1,11.8,6.1,11.8,6.1,11.8l0,0c0,0,16.9-20.6,9.4-38.6C1283.6,478.3,1254.7,461.2,1254.7,461.2z"/>
<path class="st7" d="M1254.3,461.1l-15.8-18.1l13.9-2.4c0,0-14,1.5-20.6-11l12.8-0.4c0,0-14.1,1.8-20.9-12.9l12.8,2.1
	c0,0-17.8-3.2-24.2-16c-6.4-12.8-6.4-12.8-6.4-12.8l0,0c0,0,31.3,0.9,42.6,19.1C1259.5,426.9,1254.3,461.1,1254.3,461.1z"/>
</svg>
