<?xml version="1.0" encoding="utf-8"?>
<!-- Generator: Adobe Illustrator 25.4.1, SVG Export Plug-In . SVG Version: 6.00 Build 0)  -->
<svg version="1.1" xmlns="http://www.w3.org/2000/svg" xmlns:xlink="http://www.w3.org/1999/xlink" x="0px" y="0px"
	 viewBox="0 0 1200 750" style="enable-background:new 0 0 1200 750;" xml:space="preserve">
<style type="text/css">
	.st0{fill:#67BBC6;}
	.st1{fill:#8FE1EB;}
	.st2{fill:#BBB58E;}
	.st3{fill:#DBD4BE;}
	.st4{fill:#E4E0CE;}
	.st5{fill:#A89539;}
	.st6{fill:#544B1D;}
	.st7{fill:#6C885D;}
</style>
<g id="Layer_1">
	<path class="st0" d="M1174.63,659.28c2.09,5.87,1.11,12-4.99,17.85c-5.67,5.45-13.74,6.72-21.28,6.56
		c-20.19-0.44-39.96-9.38-60.05-7.2c-24.2,2.62-39.92,22.47-61.95,29.89c-32.07,10.8-66.82,8.33-99.91,11.46
		c-16.87,1.6-36.74,6.8-53.42,2.54c-13.02-3.32-22.76-16.86-36.4-16.98c-5.42-0.05-10.61,2.16-15.66,4.31
		c-11.28,4.81-24.5,10.38-37.37,11.32c-13.6,0.99-26.07-4.97-39.53-5.18c-6.72-0.1-13.3,0.84-19.81,2.35
		c-3.25,0.75-6.48,1.65-9.68,2.65C691,729,666,734,639.93,732.9c-3.35,0.21-6.66,0.46-9.97,0.71c-26.53,2.04-53.63,4.65-80.31,1.69
		c-3.86-0.14-7.7-0.36-11.5-0.68C512,734,490,720,465.43,715.37c-2.08-0.23-4.17-0.35-6.29-0.35c-19.22,0.02-44.14-10.79-63.14-7.5
		c-16,2.19-26,20.85-42.94,18.91c-2.78-0.05-5.57-0.19-8.35-0.38c-11.15-0.73-22.28-1.96-33.35-3.59
		c-34.31-5.07-64.87-17.74-97.4-29.9c-19.88-7.43-40.21-2.22-60.24,1.27C138.53,696.48,23.19,683.39,35,649.37
		c2.5-7.68,8.5-12.34,15.76-15.74c14.03-6.56,29.5-9.49,43.66-16.27c8.75-4.19,17.28-8.81,25.87-13.31c2.86-1.5,5.74-2.98,8.7-4.32
		c6.53-2.27,13.07-4.5,19.61-6.68c3.27-1.09,6.54-2.17,9.81-3.23C193,572,229,591,265.72,587.37c3.25-0.54,6.49-1.29,9.72-2.12
		c9.69-2.5,19.32-5.74,29.08-6.22c3.03-0.13,6.06-0.32,9.11-0.61s6.11-0.66,9.19-1.13c3.26,0.43,6.48,0.96,9.69,1.45
		c19.29,2.94,38.79,4.27,58.73,1.31c3.87,0.14,7.73,0.28,11.6,0.39C468.48,582.38,534.35,578,600,578
		c79.46,0,155.11,2.2,223.78,6.17c2.08,0.12,4.16,0.24,6.22,0.37c20,1.2,40,2.29,60.03,4.17c3.84,0.32,7.66,0.63,11.46,0.96
		c44.77,3.79,85.35,8.39,120.57,13.66c3.2,0.48,6.36,0.96,9.44,1.41C1071,609,1110,618,1145.91,633.17c2.9,1.5,5.92,3.23,8.86,5.14
		C1163.61,644.05,1171.85,651.44,1174.63,659.28z"/>
	<path class="st1" d="M1147.9,648.58c1.55,2.21,1.33,4.56,0.34,6.62c-0.99,2.05-2.74,3.8-4.24,4.81c-3.09,1.08-6.17,1.85-9.25,2.37
		c-3.08,0.53-6.16,0.82-9.23,0.95C1102,662,1077,656,1053.6,669.39c-2.8,0.97-5.6,1.96-8.42,2.95c-2.82,0.98-5.66,1.95-8.53,2.87
		c-15.19,4.87-31.59,3.16-46.59,7.14c-3.21,0.85-6.44,1.57-9.68,2.16c-25.98,4.74-53.2,1.75-80.52,2.82
		c-2.78,0.34-5.49,0.66-8.2,0.88c-21.86,1.77-41.41-13.83-63.51-3.34c-6.41,3.04-12.31,8.05-19.4,8.19
		c-19.61,0.37-38.38-9.84-58.86-9.4c-51.01,1.08-98.88,24.01-150.08,24.27c-44.67,0.23-89.13-8.37-131.83-20.99
		c-40.85-12.08-83.83,6.42-124.75,8.64c-24.08,1.3-46.32-7.37-68.77-14.71c-20.73-6.78-41.89-9.64-63.65-10.61
		C165.44,668.22,118.42,673.28,75,657c-8-3-21-12-11-19c2.47-1.73,5.04-3.24,7.7-4.58c2.66-1.34,5.4-2.5,8.22-3.51
		c26.8-9.69,49.87-28.61,78.83-31.91c28.33-3.23,56.95,4.15,85.32,4.36c33.86,0.25,67.57-3.51,101.09-7.88
		c32.9-4.29,63-2.68,95.9-3.67c3.36-0.1,6.74-0.2,10.13-0.29c47.49-1.33,97.64-2.05,149.5-2.05c75.84,0,148.05,1.53,213.6,4.28
		c1.99,0.08,3.97,0.17,5.94,0.25c19.09,0.83,38.18,1.59,57.3,2.89c3.66,0.22,7.31,0.44,10.94,0.66
		c41.76,2.57,83.46,6.33,124.97,11.59c42.41,5.37,82.5,9.51,120.72,29.23c3.09,1.74,6.09,3.64,8.99,5.78
		C1145.26,645.01,1146.91,646.83,1147.9,648.58z"/>
	<circle class="st0" cx="16.52" cy="678.96" r="8.43"/>
	<circle class="st0" cx="1140.59" cy="699.5" r="8.43"/>
	<circle class="st0" cx="28.79" cy="702.68" r="11.04"/>
	<circle class="st0" cx="33.52" cy="682.72" r="4.22"/>
	<circle class="st0" cx="1175.63" cy="707.93" r="4.22"/>
</g>
<g id="Layer_2">
	<path class="st2" d="M417.58,629.21c0-29.54-64.68-70.98-144.48-70.98s-144.48,40.27-144.48,69.81
		c0,29.54,69.63,34.84,149.42,34.84S417.58,658.75,417.58,629.21z"/>
	<path class="st3" d="M400.41,614.16c0-22.33-57-53.65-127.31-53.65S145.8,590.95,145.8,613.28s61.35,26.33,131.66,26.33
		S400.41,636.49,400.41,614.16z"/>
	<path class="st4" d="M382.25,605.78c0-18.84-48.87-45.28-109.15-45.28s-109.15,25.69-109.15,44.54s52.6,22.22,112.88,22.22
		S382.25,624.63,382.25,605.78z"/>
	<path class="st2" d="M1081.82,626.58c0-25.02-52.9-60.12-118.16-60.12s-118.16,34.11-118.16,59.13
		c0,25.02,56.95,29.51,122.21,29.51S1081.82,651.6,1081.82,626.58z"/>
	<path class="st3" d="M1067.77,613.83c0-18.91-46.62-45.44-104.12-45.44c-57.51,0-104.12,25.78-104.12,44.7
		c0,18.91,50.18,22.3,107.68,22.3C1024.72,635.39,1067.77,632.75,1067.77,613.83z"/>
	<path class="st4" d="M1057.57,610.14c0-15.96-39.97-38.35-89.27-38.35c-49.3,0-89.27,21.76-89.27,37.72s43.02,18.82,92.32,18.82
		S1057.57,626.1,1057.57,610.14z"/>
	<g>
		<path class="st5" d="M220.53,600.1c32.19-0.1,64.39-0.21,96.58-0.31c23.96-113.35,9.15-236.36-44.43-349.69
			c-3.41,0-6.82,0-10.23,0C287.32,363.53,273.35,486.66,220.53,600.1z"/>
	</g>
	<path class="st6" d="M273.1,322.54c12.44-13.42,29.36,0,29.36,0"/>
	<path class="st6" d="M273.1,364.03c15.89-15.65,37.5,0,37.5,0"/>
	<path class="st6" d="M273.1,405.79c20.82-16.29,49.13,0,49.13,0"/>
	<path class="st6" d="M267.29,450.04c24.02-16.55,56.69,0,56.69,0"/>
	<path class="st6" d="M256.83,501.45c30.67-17.87,72.38,0,72.38,0"/>
	<path class="st6" d="M236.19,561.75c37.2-16.84,87.79,0,87.79,0"/>
	<path class="st5" d="M262.46,250.09"/>
	<path class="st7" d="M266.44,246l-26.28,69.47l-26.74-34.73c0,0,24.42,36.19,0,72.24l-19.77-34.52c0,0,25.58,36.09-4.65,76
		l-12.79-38c0,0,17.17,53.39-8.28,89.49s-25.44,36.1-25.44,36.1l0,0c0,0-43.02-87.21-9.88-144.19S266.44,246,266.44,246z"/>
	<path class="st7" d="M267.04,250.09l-68.2-0.93l21.75-33.8c0,0-23.73,32.26-62.46,22.51l23.73-27.74c0,0-23.28,33.23-67.16,19.69
		l28.9-22.83c0,0-40.85,31.39-79.94,20.78s-39.09-10.61-39.09-10.61l0,0c0,0,62.08-64.14,121.61-53.43S267.04,250.09,267.04,250.09z
		"/>
	<path class="st7" d="M262.46,250.09l67.74-30.46l-36.3-24.58c0,0,37.61,22.17,72.11-4.4l-35.66-17.63c0,0,37.58,23.34,75.58-9.27
		l-38.71-10.45c0,0,54.34,13.89,88.82-13.71s34.48-27.59,34.48-27.59l0,0c0,0-89.67-37.64-144.52-1.09S262.46,250.09,262.46,250.09z
		"/>
	<path class="st7" d="M263.3,246.27l50.22,39.79l1.55-36.95c0,0,0.69,37.03,33.95,53.07l-3.01-33.82c0,0-0.14,37.45,38.83,53.85
		l-9.31-33.39c0,0,13.62,46.57,47.6,62.2c33.98,15.64,33.98,15.64,33.98,15.64l0,0c0,0-12.23-82.47-61.16-110.15
		S263.3,246.27,263.3,246.27z"/>
	<path class="st7" d="M266.59,250.09l-49.07-55.75l43.21-7.36c0,0-43.41,4.62-63.83-33.83l39.76-1.3c0,0-43.87,5.7-64.97-39.71
		l39.57,6.5c0,0-55.22-9.84-75.19-49.23s-19.98-39.39-19.98-39.39l0,0c0,0,97.2,2.83,132.02,58.8S266.59,250.09,266.59,250.09z"/>
	<g>
		<path class="st5" d="M953.59,593.19c20.48-0.04,40.96-0.07,61.43-0.11c-23.55-38.96-32.95-95.85-28.2-134.78
			c-2.17,0-4.34,0-6.52,0C957.23,497.27,948.33,554.23,953.59,593.19z"/>
	</g>
	<path class="st6" d="M959.81,506.72c12.44-13.42,29.36,0,29.36,0"/>
	<path class="st6" d="M955.74,545.14c15.89-15.65,37.5,0,37.5,0"/>
	<path class="st6" d="M950.84,577.3c24.02-16.55,56.69,0,56.69,0"/>
	<path class="st5" d="M978.9,458.31"/>
	<path class="st7" d="M980.26,456.99l-8.98,22.35l-9.14-11.18c0,0,8.35,11.65,0,23.25l-6.76-11.11c0,0,8.75,11.61-1.59,24.46
		l-4.37-12.23c0,0,5.87,17.18-2.83,28.8s-8.7,11.62-8.7,11.62l0,0c0,0-14.71-28.06-3.38-46.4
		C945.83,468.22,980.26,456.99,980.26,456.99z"/>
	<path class="st7" d="M980.46,458.31l-23.32-0.3l7.44-10.88c0,0-8.11,10.38-21.35,7.24l8.11-8.93c0,0-7.96,10.69-22.96,6.34
		l9.88-7.35c0,0-13.97,10.1-27.33,6.69c-13.37-3.42-13.37-3.42-13.37-3.42l0,0c0,0,21.22-20.64,41.58-17.19
		C959.49,433.96,980.46,458.31,980.46,458.31z"/>
	<path class="st7" d="M978.9,458.31l23.16-9.8l-12.41-7.91c0,0,12.86,7.13,24.65-1.41l-12.19-5.67c0,0,12.85,7.51,25.84-2.98
		l-13.23-3.36c0,0,18.58,4.47,30.37-4.41s11.79-8.88,11.79-8.88l0,0c0,0-30.65-12.11-49.41-0.35S978.9,458.31,978.9,458.31z"/>
	<path class="st7" d="M979.19,457.08l18.13,11.32l2.18-12.43c0,0-1.29,12.37,11.15,16.41l0.24-11.2c0,0-1.64,12.54,13.05,16.47
		l-2.26-10.8c0,0,3.4,15.04,16.15,18.92c12.75,3.88,12.75,3.88,12.75,3.88l0,0c0,0-1.34-27.11-19.48-34.43
		C1012.96,447.91,979.19,457.08,979.19,457.08z"/>
	<path class="st7" d="M980.79,456.97l5.14,20.75l10.21-7.41c0,0-9.54,7.98-3.41,19.55l7.97-7.87c0,0-9.9,7.86-2.1,20.91l5.89-9.33
		c0,0-8.02,13.17-1.57,24.83c6.45,11.66,6.45,11.66,6.45,11.66l0,0c0,0,17.91-20.4,9.98-38.28S980.79,456.97,980.79,456.97z"/>
	<path class="st7" d="M980.31,458.31l-16.78-17.94l14.77-2.37c0,0-14.84,1.49-21.82-10.89l13.59-0.42c0,0-15,1.83-22.21-12.78
		l13.53,2.09c0,0-18.88-3.17-25.71-15.84c-6.83-12.68-6.83-12.68-6.83-12.68l0,0c0,0,33.23,0.91,45.14,18.92
		C985.9,424.42,980.31,458.31,980.31,458.31z"/>
</g>
</svg>
